<?xml version="1.0" standalone="no"?><!DOCTYPE svg PUBLIC "-//W3C//DTD SVG 1.1//EN" "http://www.w3.org/Graphics/SVG/1.1/DTD/svg11.dtd"><svg t="1545798182012" class="icon" style="" viewBox="0 0 1024 1024" version="1.1" xmlns="http://www.w3.org/2000/svg" p-id="12697" xmlns:xlink="http://www.w3.org/1999/xlink" width="200" height="200"><defs><style type="text/css"></style></defs><path d="M517.77536 997.74464c-268.26752 0-485.73952-217.47712-485.73952-485.74464 0-268.26752 217.47712-485.73952 485.73952-485.73952 263.31648 0 477.69088 209.5104 485.52448 470.92736C1003.43808 502.10304 1003.52 507.04384 1003.52 512 1003.52 780.26752 786.04288 997.74464 517.77536 997.74464L517.77536 997.74464 517.77536 997.74464zM517.23776 43.06944c-258.98496 0-468.39296 209.408-468.39296 468.39296 0 258.98496 209.408 468.39296 468.39296 468.39296 13.50656 0 26.86976-0.56832 40.07936-1.6896 240.16896-20.28544 428.3136-221.21984 428.3136-466.70336C985.63584 252.47744 776.22272 43.06944 517.23776 43.06944L517.23776 43.06944 517.23776 43.06944zM743.30112 581.39136l-34.69824 0c-9.5744 0-17.34144-7.76704-17.34144-17.34656L691.26144 494.65344c0-9.57952 7.76704-17.34656 17.34144-17.34656l34.69824 0c9.57952 0 17.35168 7.76704 17.35168 17.34656l0 69.39136C760.64768 573.62432 752.88064 581.39136 743.30112 581.39136L743.30112 581.39136 743.30112 581.39136zM743.30112 425.26208l-34.69824 0c-9.5744 0-17.34144-7.77216-17.34144-17.34656L691.26144 338.52416c0-9.57952 7.76704-17.35168 17.34144-17.35168l34.69824 0c9.57952 0 17.35168 7.77216 17.35168 17.35168l0 69.39136C760.64768 417.49504 752.88064 425.26208 743.30112 425.26208L743.30112 425.26208 743.30112 425.26208zM604.5184 581.39136l-34.69824 0c-9.5744 0-17.34656-7.76704-17.34656-17.34656L552.4736 494.65344c0-9.57952 7.77216-17.34656 17.34656-17.34656l34.69824 0c9.5744 0 17.34144 7.76704 17.34144 17.34656l0 69.39136C621.85984 573.62432 614.0928 581.39136 604.5184 581.39136L604.5184 581.39136 604.5184 581.39136zM604.5184 425.26208l-34.69824 0c-9.5744 0-17.34656-7.77216-17.34656-17.34656L552.4736 338.52416c0-9.57952 7.77216-17.35168 17.34656-17.35168l34.69824 0c9.5744 0 17.34144 7.77216 17.34144 17.35168l0 69.39136C621.85984 417.49504 614.0928 425.26208 604.5184 425.26208L604.5184 425.26208 604.5184 425.26208zM725.95456 668.12928l0 17.3568c0 9.5744-7.77728 17.34656-17.3568 17.34656L326.94784 702.83264c-9.5744 0-17.35168-7.77216-17.35168-17.34656l0-17.3568c0-9.56928 7.77728-17.34144 17.35168-17.34144l381.64992 0C718.1824 650.78784 725.95456 658.56 725.95456 668.12928L725.95456 668.12928 725.95456 668.12928zM465.73056 581.39136l-34.69312 0c-9.5744 0-17.35168-7.76704-17.35168-17.34656L413.68576 494.65344c0-9.57952 7.77728-17.34656 17.35168-17.34656l34.69312 0c9.57952 0 17.35168 7.76704 17.35168 17.34656l0 69.39136C483.08224 573.62432 475.31008 581.39136 465.73056 581.39136L465.73056 581.39136 465.73056 581.39136zM465.73056 425.26208l-34.69312 0c-9.5744 0-17.35168-7.77216-17.35168-17.34656L413.68576 338.52416c0-9.57952 7.77728-17.35168 17.35168-17.35168l34.69312 0c9.57952 0 17.35168 7.77216 17.35168 17.35168l0 69.39136C483.08224 417.49504 475.31008 425.26208 465.73056 425.26208L465.73056 425.26208 465.73056 425.26208zM326.94784 581.39136l-34.69824 0c-9.5744 0-17.34656-7.76704-17.34656-17.34656L274.90304 494.65344c0-9.57952 7.77216-17.34656 17.34656-17.34656l34.69824 0c9.5744 0 17.35168 7.76704 17.35168 17.34656l0 69.39136C344.29952 573.62432 336.52736 581.39136 326.94784 581.39136L326.94784 581.39136 326.94784 581.39136zM326.94784 425.26208l-34.69824 0c-9.5744 0-17.34656-7.77216-17.34656-17.34656L274.90304 338.52416c0-9.57952 7.77216-17.35168 17.34656-17.35168l34.69824 0c9.5744 0 17.35168 7.77216 17.35168 17.35168l0 69.39136C344.29952 417.49504 336.52736 425.26208 326.94784 425.26208L326.94784 425.26208 326.94784 425.26208z" p-id="12698"></path></svg>