<?xml version="1.0" standalone="no"?><!DOCTYPE svg PUBLIC "-//W3C//DTD SVG 1.1//EN" "http://www.w3.org/Graphics/SVG/1.1/DTD/svg11.dtd"><svg t="1545797527369" class="icon" style="" viewBox="0 0 1024 1024" version="1.1" xmlns="http://www.w3.org/2000/svg" p-id="10171" xmlns:xlink="http://www.w3.org/1999/xlink" width="200" height="200"><defs><style type="text/css"></style></defs><path d="M511.3 627.8c100.5 0 182.3-80.2 182.3-178.8V243.3c0-98.6-81.8-178.8-182.3-178.8S329 144.7 329 243.3V449c0 98.6 81.8 178.8 182.3 178.8zM383.2 243.3c0-69.3 57.5-125.6 128.1-125.6S639.4 174 639.4 243.3V449c0 69.3-57.5 125.6-128.1 125.6S383.2 518.2 383.2 449V243.3z" fill="#4D4D4D" p-id="10172"></path><path d="M804.5 447.5c0-14.7-12.1-26.6-27.1-26.6-15 0-27.1 11.9-27.1 26.6 0 129.2-107.2 234.4-239 234.4s-239-105.1-239-234.4c0-14.7-12.1-26.6-27.1-26.6-15 0-27.1 11.9-27.1 26.6 0 149.6 117.1 272.8 266.1 286.3v172.7H356.1c-15 0-27.1 11.9-27.1 26.6s12.1 26.6 27.1 26.6h310.4c15 0 27.1-11.9 27.1-26.6s-12.1-26.6-27.1-26.6H538.4V733.7C687.5 720.2 804.5 597 804.5 447.5z" fill="#4D4D4D" p-id="10173"></path></svg>