<?xml version="1.0" standalone="no"?><!DOCTYPE svg PUBLIC "-//W3C//DTD SVG 1.1//EN" "http://www.w3.org/Graphics/SVG/1.1/DTD/svg11.dtd"><svg class="icon" width="200px" height="200.00px" viewBox="0 0 1024 1024" version="1.1" xmlns="http://www.w3.org/2000/svg"><path fill="#ffffff" d="M745.72 362.112c-13.971-80.487-67.339-147.581-142.752-179.477-14.77-6.243-31.83 0.667-38.082 15.447-6.253 14.78 0.662 31.83 15.447 38.082 57.128 24.163 97.552 74.963 108.127 135.885a183.584 183.584 0 0 1 2.682 31.291c0 16.047 13.011 29.058 29.058 29.058s29.058-13.011 29.058-29.058c0-13.835-1.187-27.706-3.538-41.228z"  /><path fill="#ffffff" d="M853.431 406.276c0-188.936-153.71-342.646-342.646-342.646S168.138 217.34 168.138 406.276c0 125.675 69.803 241.977 179.189 301.587l0.004 145.147c0 58.75 53.652 106.547 119.596 106.547h87.714c65.944 0 119.596-47.797 119.596-106.547V707.861c109.39-59.611 179.194-175.912 179.194-301.585zM632.713 663.999c-0.594 0.282-1.085 0.682-1.651 0.999-0.932 0.523-1.862 1.031-2.727 1.649-0.773 0.552-1.461 1.173-2.167 1.788-0.7 0.611-1.402 1.205-2.041 1.88-0.668 0.706-1.25 1.465-1.839 2.228-0.56 0.722-1.119 1.432-1.61 2.207-0.499 0.79-0.91 1.616-1.329 2.449-0.427 0.844-0.855 1.678-1.201 2.568-0.343 0.884-0.585 1.793-0.84 2.706-0.247 0.884-0.508 1.753-0.672 2.669-0.193 1.069-0.255 2.15-0.327 3.24-0.041 0.629-0.188 1.227-0.188 1.866v162.763c0 26.254-28.155 48.431-61.479 48.431h-87.714c-33.324 0-61.479-22.177-61.479-48.431l-0.005-162.763c0-0.641-0.148-1.241-0.189-1.872-0.072-1.085-0.134-2.162-0.326-3.227-0.164-0.923-0.427-1.799-0.676-2.689-0.254-0.907-0.494-1.808-0.834-2.686-0.347-0.896-0.778-1.735-1.209-2.586-0.417-0.826-0.825-1.646-1.32-2.431-0.494-0.779-1.056-1.496-1.62-2.222-0.586-0.76-1.164-1.513-1.829-2.216-0.638-0.675-1.34-1.269-2.04-1.879-0.709-0.618-1.399-1.242-2.175-1.795-0.854-0.611-1.772-1.113-2.692-1.629-0.575-0.323-1.075-0.729-1.679-1.016-98.777-46.927-162.602-148.087-162.602-257.723 0-156.889 127.641-284.53 284.53-284.53s284.53 127.641 284.53 284.53c0.002 109.635-63.824 210.795-162.6 257.722z"  /><path fill="#ffffff" d="M560.828 705.775H460.737c-16.047 0-29.058 13.011-29.058 29.058s13.011 29.058 29.058 29.058h100.091c16.047 0 29.058-13.011 29.058-29.058s-13.01-29.058-29.058-29.058zM560.828 799.425H460.737c-16.047 0-29.058 13.011-29.058 29.058s13.011 29.058 29.058 29.058h100.091c16.047 0 29.058-13.011 29.058-29.058s-13.01-29.058-29.058-29.058z"  /></svg>