<?xml version="1.0" standalone="no"?><!DOCTYPE svg PUBLIC "-//W3C//DTD SVG 1.1//EN" "http://www.w3.org/Graphics/SVG/1.1/DTD/svg11.dtd"><svg t="1545805890735" class="icon" style="" viewBox="0 0 1024 1024" version="1.1" xmlns="http://www.w3.org/2000/svg" p-id="2795" xmlns:xlink="http://www.w3.org/1999/xlink" width="26" height="26"><defs><style type="text/css"></style></defs><path d="M774.360871 78.957283 246.68382 78.957283 63.367725 342.892511c0 0 0 90.524736 0 105.564267 0 28.135804 53.80851 87.87028 70.451562 108.202351l0 296.829406c0 58.311057 44.291762 103.832833 105.58064 103.832833l552.640606 0c61.288878 0 95.962585-45.520753 95.962585-103.832833L888.003118 549.764092c18.844184-21.757536 70.582545-66.210981 70.582545-101.307314 0-28.89612 0-105.564267 0-105.564267L774.360871 78.957283zM281.844621 141.364635l458.131115 0 119.827109 179.965791L161.986813 321.330426 281.844621 141.364635zM831.602573 839.631946c0 29.173436-32.765241 55.397704-63.424518 55.397704L253.645372 895.02965c-30.661324 0-63.425541-26.224268-63.425541-55.397704l0-83.046415 641.382743 0L831.602573 839.631946zM831.602573 701.223642 190.219831 701.223642 190.219831 577.445548c0 0 32.69975 0 35.226293 0 28.879748 0 67.99051-22.307052 87.352487-60.980863 21.756513 37.606503 47.917336 63.959707 86.704734 63.959707 40.98853 0 86.122473-23.924899 101.177354-58.472739 15.087627 33.703613 58.180074 55.492872 98.328469 55.492872 39.824007 0 82.173534-25.706475 103.022375-64.962547 24.410969 39.612183 44.163849 67.942415 95.090728 67.942415 0.550539 0 34.481326-9.908674 34.481326-9.908674L831.603597 701.223642zM880.943328 445.932282c-0.38681 36.439934-46.327118 55.347562-83.822081 55.31584-43.255153-0.032746-82.204234-37.896098-82.204234-64.979944l-25.447579 0c0 26.629497-48.176233 64.979944-89.683579 64.979944-39.759539 0-86.058005-39.176254-86.058005-64.979944l-26.094308 0c0 26.629497-47.077202 64.979944-86.835717 64.979944-41.507346 0-74.337055-30.936593-74.337055-64.979944L300.947701 436.268178c0 26.548656-36.359093 65.804728-76.214822 65.804728-40.503483 0-83.856873-12.771885-83.856873-49.228191l0-62.293765 740.066299 0L880.942305 445.932282z" p-id="2796" fill="#C71D23"></path></svg>