<?xml version="1.0" standalone="no"?><!DOCTYPE svg PUBLIC "-//W3C//DTD SVG 1.1//EN" "http://www.w3.org/Graphics/SVG/1.1/DTD/svg11.dtd"><svg t="1545785995725" class="icon" style="" viewBox="0 0 1024 1024" version="1.1" xmlns="http://www.w3.org/2000/svg" p-id="2056" xmlns:xlink="http://www.w3.org/1999/xlink" width="16" height="16"><defs><style type="text/css"></style></defs><path d="M334.032568 656.0006c-0.230432-0.192026-0.384053-0.422458-0.65289-0.614484-78.077936-61.755691-111.375314-124.932378-111.375314-211.34426 0-19.663504-15.938192-35.601695-35.601695-35.601695-19.663504 0-35.601695 15.938192-35.601695 35.601695 0 94.937854 34.295916 172.170873 107.189139 240.340247-110.952856 86.949556-172.554926 176.088212-202.626261 291.726512-4.954281 19.049019 6.452087 38.482091 25.501106 43.436373 3.034017 0.768106 6.029629 1.152158 8.986836 1.152158 15.822976 0 30.263361-10.638263 34.449537-26.653265 28.688745-110.223156 91.942242-193.677831 211.459476-279.014364 16.015002-11.444774 19.701909-33.681431 8.295541-49.658028C341.214355 661.530961 337.796285 658.420133 334.032568 656.0006L334.032568 656.0006z" p-id="2057"></path><path d="M181.525198 369.574016c19.317856-3.341259 32.298841-21.737389 29.034392-41.09365-0.192026-0.998537-16.207028-100.890672 45.548663-173.975922 46.739227-55.303604 126.852642-83.339459 238.151146-83.339459 111.413719 0 191.719161 28.07426 238.76563 83.49308C795.164773 227.78172 779.610635 327.63545 779.457013 328.518771c-3.341259 19.394667 9.678131 37.790796 29.072798 41.132056 2.03548 0.345648 4.07096 0.537674 6.068034 0.537674 17.013539 0 32.068409-12.251285 35.064021-29.572066 0.921727-5.376739 21.622173-132.421408-61.717286-231.315006-61.141207-72.547575-159.957994-109.301429-293.685182-109.301429-133.727187 0-232.351948 36.753854-293.185913 109.301429-82.993812 98.970408-61.640476 226.130293-60.680344 231.507032C143.811212 360.049507 162.284152 372.915276 181.525198 369.574016L181.525198 369.574016z" p-id="2058"></path><path d="M515.727951 824.21573l145.287177 0 0 145.287177c0 30.10974 24.387353 54.497093 54.497093 54.497093 30.10974 0 54.497093-24.387353 54.497093-54.497093L770.009314 824.21573l145.287177 0c30.10974 0 54.497093-24.387353 54.497093-54.497093 0-30.10974-24.387353-54.497093-54.497093-54.497093L770.009314 715.221543 770.009314 569.934366C770.009314 539.863031 745.621961 515.437273 715.512221 515.437273c-30.10974 0-54.497093 24.387353-54.497093 54.497093l0 145.287177L515.727951 715.221543c-30.10974 0-54.497093 24.387353-54.497093 54.497093C461.230857 799.828376 485.618211 824.21573 515.727951 824.21573L515.727951 824.21573z" p-id="2059"></path></svg>