<?xml version="1.0" standalone="no"?><!DOCTYPE svg PUBLIC "-//W3C//DTD SVG 1.1//EN" "http://www.w3.org/Graphics/SVG/1.1/DTD/svg11.dtd"><svg t="1545786025794" class="icon" style="" viewBox="0 0 1025 1024" version="1.1" xmlns="http://www.w3.org/2000/svg" p-id="3200" xmlns:xlink="http://www.w3.org/1999/xlink" width="16.015625" height="16"><defs><style type="text/css"></style></defs><path d="M511.872081 96.287499c229.419881 0 416.077839 186.657957 416.077839 416.077839 0 229.417835-186.657957 416.075792-416.077839 416.075792-229.417835 0-416.079886-186.657957-416.079886-416.075792C95.792195 282.945456 282.454246 96.287499 511.872081 96.287499M511.872081 32.275602c-265.174892 0-480.091782 214.979315-480.091782 480.089735 0 265.109397 214.91689 480.091782 480.091782 480.091782 265.050042 0 480.089735-214.982385 480.089735-480.091782C991.960793 247.254917 776.922123 32.275602 511.872081 32.275602L511.872081 32.275602z" p-id="3201"></path><path d="M648.461357 521.366771c-21.631684-22.131081-68.639509-47.885864-130.649723-67.637644-36.881725-11.754259-58.137837-20.877471-58.137837-48.882612 0-39.011327 24.628068-47.762038 55.758536-47.762038 24.005868 0 59.264551 29.004959 59.264551 52.51143l95.267214-22.37771c0-18.134879-13.879768-48.265529-41.258615-71.767906-22.005209-18.752986-50.634596-29.630229-85.391835-33.380826l0-50.381827-63.38458 0 0 50.50463c-36.759945 4.50174-62.635484 16.505697-84.767588 35.26073-22.752258 19.12958-36.755852 50.882248-36.755852 82.388287 0 36.509223 5.623337 68.012192 26.003458 90.14532 20.252201 22.249791 93.518299 47.129604 129.772707 55.256069 35.008984 7.877789 67.391016 29.882998 67.640714 60.514068 0.374548 37.383169-34.006096 51.509565-62.761356 51.509565-48.258365 0-80.640397-35.881906-80.640397-67.260026l-95.393086 23.376505c6.124781 33.257 15.626635 59.759855 46.758126 84.516866 23.503401 18.877835 51.386762 30.378302 90.143274 35.003868l0 60.140543 63.38458 0 0-59.261481c36.257478-2.876652 66.760629-16.877175 92.017037-35.510428 29.758148-22.249791 45.385807-50.631526 45.385807-92.514388C680.716493 571.750645 669.965122 543.745504 648.461357 521.366771z" p-id="3202"></path></svg>