<?xml version="1.0" standalone="no"?><!DOCTYPE svg PUBLIC "-//W3C//DTD SVG 1.1//EN" "http://www.w3.org/Graphics/SVG/1.1/DTD/svg11.dtd"><svg t="1545806923643" class="icon" style="" viewBox="0 0 1024 1024" version="1.1" xmlns="http://www.w3.org/2000/svg" p-id="4433" xmlns:xlink="http://www.w3.org/1999/xlink" width="26" height="26"><defs><style type="text/css"></style></defs><path d="M705.94591 1.204099H171.15404c-50.744163 0-91.167479 41.111372-91.167479 91.167478v839.084832c0 50.744163 41.111372 91.167479 91.167479 91.167478h681.519906c50.056106 0 91.167479-41.111372 91.167478-91.167478V239.099614L705.94591 1.204099z m16.34134 96.843944l124.71023 124.71023h-111.293129c-7.052579 0-13.245087-6.364522-13.245087-13.245086V98.048043z m164.617504 833.408366c0 9.116748-3.612296 17.717453-9.976819 24.253989-6.364522 6.364522-15.137242 9.976818-24.253989 9.976819H171.15404c-9.116748 0-17.717453-3.612296-24.25399-9.976819-6.364522-6.364522-9.976818-15.137242-9.976818-24.253989V92.371577c0-9.116748 3.612296-17.717453 9.976818-24.253989 6.364522-6.364522 15.137242-9.976818 24.25399-9.976819v-0.516042h494.19654v151.88846c0 38.703175 31.650596 70.181757 70.181757 70.181757h151.200403l0.172014 651.761465z m-586.568117-582.783807H545.28473c7.568621 0 14.793214-2.92424 20.125651-8.256677 5.332437-5.332437 8.256677-12.55703 8.256678-20.125651 0-7.568621-2.92424-14.793214-8.256678-20.125651-5.332437-5.332437-12.55703-8.256677-20.125651-8.256677H300.336637c-7.568621 0-14.793214 2.92424-20.125651 8.256677-5.332437 5.332437-8.256677 12.55703-8.256677 20.125651 0 7.568621 2.92424 14.793214 8.256677 20.125651 5.332437 5.332437 12.55703 8.256677 20.125651 8.256677z m422.810684 335.427516H300.336637c-15.825298 0-28.382328 12.55703-28.382328 28.382328s12.55703 28.382328 28.382328 28.382328h422.810684c15.825298 0 28.382328-12.55703 28.382328-28.382328s-12.55703-28.382328-28.382328-28.382328zM300.336637 490.928271c-7.568621 0-14.793214 2.92424-20.125651 8.256678-5.332437 5.332437-8.256677 12.55703-8.256677 20.125651 0 7.568621 2.92424 14.793214 8.256677 20.125651 5.332437 5.332437 12.55703 8.256677 20.125651 8.256677h422.810684c7.568621 0 14.793214-2.92424 20.125651-8.256677 5.332437-5.332437 8.256677-12.55703 8.256677-20.125651 0-7.568621-2.92424-14.793214-8.256677-20.125651-5.332437-5.332437-12.55703-8.256677-20.125651-8.256678H300.336637z m0 0" p-id="4434" fill="#C71D23"></path></svg>