<?xml version="1.0" standalone="no"?><!DOCTYPE svg PUBLIC "-//W3C//DTD SVG 1.1//EN" "http://www.w3.org/Graphics/SVG/1.1/DTD/svg11.dtd"><svg t="1545806959153" class="icon" style="" viewBox="0 0 1024 1024" version="1.1" xmlns="http://www.w3.org/2000/svg" p-id="4877" xmlns:xlink="http://www.w3.org/1999/xlink" width="26" height="26"><defs><style type="text/css"></style></defs><path d="M239.104 187.904V73.216c0-16.384-12.8-29.696-29.184-29.696s-29.184 13.312-29.184 29.696v114.688C102.912 202.752 46.08 272.384 46.08 353.28c0 80.896 56.832 150.016 135.168 164.864v435.712c0 16.384 12.8 29.696 29.184 29.696s29.184-13.312 29.184-29.696v-435.712C317.44 503.296 373.76 433.664 373.76 352.768c0-80.384-56.32-150.016-134.656-164.864zM209.92 461.824c-58.368 0-105.984-48.64-105.984-109.056S151.552 244.224 209.92 244.224 315.904 292.864 315.904 353.28 268.288 461.824 209.92 461.824z m329.728 38.912V72.192c0-16.384-12.8-29.696-29.184-29.696-15.872 0-29.184 13.312-29.184 29.696v428.544c-78.336 14.848-135.168 83.968-135.168 164.864 0 84.992 61.952 155.136 141.824 165.888v121.856c0 16.384 12.8 29.696 29.184 29.696 15.872 0 29.184-13.312 29.184-29.696v-124.416c75.264-17.408 128-85.504 128-163.84 0.512-80.384-56.32-150.016-134.656-164.352z m-29.184 273.408c-58.368 0-105.984-48.64-105.984-109.056 0-59.904 47.616-109.056 105.984-109.056s105.984 48.64 105.984 109.056-47.616 109.056-105.984 109.056z m328.192-510.464V70.656c0-16.384-12.8-29.696-29.184-29.696s-29.184 13.312-29.184 29.696v193.536c-76.8 13.824-134.656 82.432-134.656 164.864 0 84.992 61.952 154.624 141.824 165.888v358.912c0 16.384 12.8 29.696 29.184 29.696s29.184-13.312 29.184-29.696v-361.472c75.264-17.408 128-85.504 128-163.328 0-80.896-56.832-150.528-135.168-165.376z m-28.672 273.92c-58.368 0-105.984-48.64-105.984-108.544s47.616-109.056 105.984-109.056c58.368 0 105.984 48.64 105.984 109.056 0 59.904-47.616 108.544-105.984 108.544z" p-id="4878" fill="#C71D23"></path></svg>