<?xml version="1.0" standalone="no"?><!DOCTYPE svg PUBLIC "-//W3C//DTD SVG 1.1//EN" "http://www.w3.org/Graphics/SVG/1.1/DTD/svg11.dtd"><svg t="1545786013851" class="icon" style="" viewBox="0 0 1024 1024" version="1.1" xmlns="http://www.w3.org/2000/svg" p-id="2316" xmlns:xlink="http://www.w3.org/1999/xlink" width="16" height="16"><defs><style type="text/css"></style></defs><path d="M932.7 724.3l-0.1-0.1c-17.5-17.1-40.4-26.7-64.8-27.2v-0.5c-15.6 0.1-30.9 4.1-44.5 11.4-13.5-7.4-28.8-11.4-44.3-11.4h-0.1c-25.3 0-50 10.4-67.6 28.6-17.7 18.2-27.4 43.1-26.6 68.5l0.1 1c1.8 25.5 11 49.8 26.5 70.1 9.3 13.1 19.7 25.6 30.8 37.2 8.7 9.6 19 19.7 32.2 31.7 4.9 4.8 10.1 9.5 15.5 13.8 9.4 7.8 21.2 12.1 33.4 12.1h0.9c12.1 0 23.8-4.3 33.1-12.2 5.3-4.3 10.5-8.9 15.4-13.7 12.3-11.2 23-21.5 32.5-31.5l0.3-0.3c10.8-11.7 20.9-24.3 30.2-37.2 15.6-20.8 24.2-45.5 25-71.5 0.3-25.7-9.7-50.8-27.9-68.8z m-20.5 67.3c-0.5 16.1-5.9 31.5-15.6 44.4l-0.3 0.4c-8.1 11.4-17.1 22.4-26.5 32.7-8.8 9.2-18.6 18.7-30.2 29.2l-0.8 0.7c-3.9 3.9-8.1 7.6-12.4 11.1l-0.7 0.6c-0.6 0.5-1.3 0.8-2 0.7h-0.8c-1 0-1.9-0.3-2.6-1l-0.4-0.4c-4.3-3.5-8.5-7.2-12.5-11.1l-0.8-0.7c-12.3-11.1-21.6-20.3-29.4-28.9l-0.5-0.5c-9.7-10.1-18.7-21-26.8-32.5l-0.5-0.7c-9.8-12.8-15.7-28-17-44.1-0.2-12.3 4.5-24.3 13.1-33.1 8.7-8.9 20.8-14 33.2-14 10.6 0.1 20.8 3.8 28.9 10.7l15.3 12.9 15.4-12.7c7.6-6.3 17-10 26.7-10.7v0.4c12.7-0.1 24.7 4.6 33.8 13.5 8.9 8.7 13.8 20.7 13.4 33.1zM717.7 642.7c7.5-10.9 4.7-25.9-6.3-33.4-35.6-24.4-75.9-41-120.4-49.9 96.6-36.6 165.2-130 165.2-239.4 0-141.3-114.6-255.9-255.9-255.9s-255.9 114.7-255.9 256c0 111.6 71.4 206.5 171 241.5-45.4 9.4-87.3 25.7-125.4 48.8-51 31-94.9 74.1-130.4 128.1-59.9 91.1-75.1 181.2-75.7 185l-1.3 8.3c-2 13.1 7 25.4 20.1 27.4 1.2 0.2 2.5 0.3 3.7 0.3 11.6 0 21.9-8.5 23.7-20.4l1.2-8c0.5-2.9 14.8-84.7 68.4-166.3C271.6 655.5 376.8 600 512.3 600c66.7 0 124.6 16.5 172.1 48.9 10.9 7.6 25.8 4.8 33.3-6.2zM292.4 320.1c0-55.5 21.6-107.7 60.9-147s91.5-60.9 147-60.9 107.7 21.6 147 60.9 60.9 91.5 60.9 147-21.6 107.7-60.9 147-91.5 60.9-147 60.9-107.7-21.6-147-60.9-60.9-91.4-60.9-147z" p-id="2317"></path></svg>