<?xml version="1.0" standalone="no"?><!DOCTYPE svg PUBLIC "-//W3C//DTD SVG 1.1//EN" "http://www.w3.org/Graphics/SVG/1.1/DTD/svg11.dtd"><svg t="1545805861745" class="icon" style="" viewBox="0 0 1024 1024" version="1.1" xmlns="http://www.w3.org/2000/svg" p-id="2016" xmlns:xlink="http://www.w3.org/1999/xlink" width="26" height="26"><defs><style type="text/css"></style></defs><path d="M528.384 357.944889h-40.96v200.021333h0.113778l-0.113778 0.341334 105.813333 69.063111 22.414223-34.247111-87.267556-57.002667V357.944889z" p-id="2017" fill="#C71D23"></path><path d="M511.431111 216.064c-163.84 0-297.073778 133.233778-297.073778 297.073778 0 163.84 133.233778 297.073778 297.073778 297.073778 163.84 0 297.073778-133.233778 297.073778-297.073778 0-163.726222-133.347556-297.073778-297.073778-297.073778z m0 553.187556c-141.198222 0-256.113778-114.915556-256.113778-256.113778s114.915556-256.113778 256.113778-256.113778 256.113778 114.915556 256.113778 256.113778c-0.113778 141.312-114.915556 256.113778-256.113778 256.113778z" p-id="2018" fill="#C71D23"></path></svg>