<?xml version="1.0" standalone="no"?><!DOCTYPE svg PUBLIC "-//W3C//DTD SVG 1.1//EN" "http://www.w3.org/Graphics/SVG/1.1/DTD/svg11.dtd"><svg t="1545813936573" class="icon" style="" viewBox="0 0 1024 1024" version="1.1" xmlns="http://www.w3.org/2000/svg" p-id="13830" xmlns:xlink="http://www.w3.org/1999/xlink" width="26" height="26"><defs><style type="text/css"></style></defs><path d="M511.534545 1024A512.093091 512.093091 0 0 1 0 512.465455 512.093091 512.093091 0 0 1 511.534545 1.024a39.377455 39.377455 0 0 1 0 78.661818 433.245091 433.245091 0 0 0-432.872727 432.872727 433.338182 433.338182 0 0 0 432.872727 432.779637 433.338182 433.338182 0 0 0 432.779637-432.872727 39.377455 39.377455 0 0 1 78.661818 0A512.093091 512.093091 0 0 1 511.534545 1024z" fill="#C71D23" p-id="13831"></path><path d="M510.696727 158.347636a39.377455 39.377455 0 0 0-39.284363 39.377455v314.740364a39.377455 39.377455 0 0 0 78.661818 0v-314.647273a39.377455 39.377455 0 0 0-39.377455-39.470546z" fill="#C71D23" p-id="13832"></path><path d="M746.775273 473.181091H510.696727a39.377455 39.377455 0 0 0 0 78.661818h236.078546a39.377455 39.377455 0 0 0 0-78.661818z" fill="#C71D23" p-id="13833"></path></svg>