<?xml version="1.0" standalone="no"?><!DOCTYPE svg PUBLIC "-//W3C//DTD SVG 1.1//EN" "http://www.w3.org/Graphics/SVG/1.1/DTD/svg11.dtd"><svg t="1545813922967" class="icon" style="" viewBox="0 0 1024 1024" version="1.1" xmlns="http://www.w3.org/2000/svg" p-id="13067" xmlns:xlink="http://www.w3.org/1999/xlink" width="26" height="26"><defs><style type="text/css"></style></defs><path d="M884.875894 401.80991967L646.970506 401.80991967c92.185562-340.464205-63.516616-357.853247-63.51661599-357.853247-65.993017 0-52.312436 52.18247599-57.30310001 60.881602 0 166.502152-176.849824 296.971645-176.84982399 296.971645l-1e-8 472.171899c0 46.607504 63.516616 63.393819 88.433098 63.393819l357.452111 0c33.641191 0 61.036122-88.224344 61.03612199-88.224344 88.43412199-300.70569 88.434122-390.177444 88.43412201-390.177444C944.65744199 396.84586167 884.875894 401.80991967 884.875894 401.80991967L884.875894 401.80991967 884.875894 401.80991967zM884.875894 401.80991967" fill="#C71D23" p-id="13068"></path><path d="M251.671415 401.96648567L109.21491199 401.96648567c-29.420053 0-29.873378 28.89612-29.87337799 28.89612001l29.420053 476.20270299c0 30.30930601 30.36149501 30.309306 30.361495 30.309306L262.420223 937.37461467c25.68600901 0 25.458835-20.049638 25.458835-20.049638L287.879058 438.07793767C287.879058 401.50395067 251.671415 401.96648567 251.671415 401.96648567L251.671415 401.96648567 251.671415 401.96648567zM251.671415 401.96648567" fill="#C71D23" p-id="13069"></path></svg>