<?xml version="1.0" standalone="no"?><!DOCTYPE svg PUBLIC "-//W3C//DTD SVG 1.1//EN" "http://www.w3.org/Graphics/SVG/1.1/DTD/svg11.dtd"><svg t="1545808296526" class="icon" style="" viewBox="0 0 1024 1024" version="1.1" xmlns="http://www.w3.org/2000/svg" p-id="9323" xmlns:xlink="http://www.w3.org/1999/xlink" width="26" height="26"><defs><style type="text/css"></style></defs><path d="M792.9344 819.2 231.0656 819.2C202.4704 819.2 179.2 796.672 179.2 768.9984l0-34.2528c0-45.7728 31.616-82.0224 76.8-92.0064L256 435.2c0-139.8272 112.4608-230.4 256-230.4s256 90.5728 256 230.4l0 207.5392c45.184 9.984 76.8 46.2336 76.8 92.0064l0 34.2528C844.8 796.672 821.5296 819.2 792.9344 819.2zM281.6 691.2c-30.1568 0-51.2 17.8944-51.2 43.5456l0 34.2528L792.9344 768c0.768 0 1.0752-0.3072 1.0752-0.3072L793.6 734.7456C793.6 709.0944 772.5568 691.2 742.4 691.2l-25.6 0L716.8 435.2c0-111.1296-89.9584-179.2-204.8-179.2s-204.8 68.0704-204.8 179.2l0 256L281.6 691.2z" p-id="9324" fill="#C71D23"></path><path d="M793.6 716.8 435.2 716.8c-14.1568 0-25.6-11.4432-25.6-25.6s11.4432-25.6 25.6-25.6l358.4 0c14.1568 0 25.6 11.4432 25.6 25.6S807.7568 716.8 793.6 716.8z" p-id="9325" fill="#C71D23"></path><path d="M640 256l-51.2 0c0-48.9984-33.8432-76.8-76.8-76.8-41.8048 0-76.8 26.1376-76.8 76.8l-51.2 0c0-79.3856 57.4976-128 128-128C583.936 128 640 177.9456 640 256z" p-id="9326" fill="#C71D23"></path><path d="M512 832m-64 0a2.5 2.5 0 1 0 128 0 2.5 2.5 0 1 0-128 0Z" p-id="9327" fill="#C71D23"></path></svg>