<?xml version="1.0" standalone="no"?><!DOCTYPE svg PUBLIC "-//W3C//DTD SVG 1.1//EN" "http://www.w3.org/Graphics/SVG/1.1/DTD/svg11.dtd"><svg t="1545808266677" class="icon" style="" viewBox="0 0 1228 1024" version="1.1" xmlns="http://www.w3.org/2000/svg" p-id="7769" xmlns:xlink="http://www.w3.org/1999/xlink" width="31.1796875" height="26"><defs><style type="text/css"></style></defs><path d="M956.006 567.91c82.893-53.964 138.24-150.016 138.24-259.481 0-168.346-130.97-305.357-291.89-305.357-160.974 0-291.943 137.011-291.943 305.357 0 109.414 55.398 205.517 138.24 259.481C490.189 632.422 377.65 793.6 377.65 981.811c0 23.04 17.767 41.626 39.783 41.626 22.016 0 39.782-18.586 39.782-41.626 0-198.963 154.778-360.857 344.986-360.857s344.985 161.894 344.985 360.857c0 23.04 17.767 41.626 39.783 41.626 22.016 0 39.782-18.586 39.782-41.626 0.256-188.211-112.384-349.44-270.746-413.9z m-153.65-37.376c-117.044 0-212.378-99.686-212.378-222.105S685.312 86.272 802.355 86.272s212.327 99.738 212.327 222.157c0 122.419-95.284 222.105-212.327 222.105zM285.9 920.627v-0.153H106.24a25.6 25.6 0 0 1-18.74-8.192 28.62 28.62 0 0 1-7.782-19.559V133.786a27.136 27.136 0 0 1 26.522-27.75h352.614c21.607-0.564 38.861-19.047 38.861-41.626 0-22.58-17.254-41.063-38.86-41.626H120.063C53.76 22.784 0 79.002 0 148.378v730.06c0 69.325 53.76 125.543 120.064 125.543h165.888v-0.103c21.3-0.87 38.246-19.2 38.246-41.472-0.153-22.63-16.947-40.96-38.297-41.779z" fill="#C71D23" p-id="7770"></path><path d="M400.077 199.014v-0.358h-3.021l-1.382-0.154-1.332 0.154H196.864l-1.331-0.154-1.383 0.154h-2.048v0.307c-23.398 1.843-41.984 22.17-41.984 47.053 0 25.037 18.432 45.21 41.984 47.053v0.153h1.076c0.819 0 1.536 0.256 2.201 0.256 0.82 0 1.536-0.102 2.355-0.256H393.37c0.819 0 1.536 0.256 2.201 0.256 0.82 0 1.536-0.102 2.304-0.256h2.202v-0.307c22.989-2.253 40.857-22.323 40.857-46.899a46.387 46.387 0 0 0-40.857-47.104z m0 202.394v-0.307h-3.021l-1.382-0.154-1.332 0.154H196.864l-1.331-0.154-1.383 0.154h-2.048v0.153c-23.398 1.844-41.984 22.17-41.984 47.104 0 24.986 18.432 45.159 41.984 47.002v0.154h1.076c0.819 0 1.536 0.307 2.201 0.307 0.82 0 1.536-0.154 2.355-0.307H393.37c0.819 0 1.536 0.307 2.201 0.307 0.82 0 1.536-0.154 2.304-0.307h2.202v-0.308c23.091-2.252 40.857-22.528 40.857-46.899a46.54 46.54 0 0 0-40.857-46.899zM193.33 703.078c0.82 0 1.536 0.256 2.304 0.256 0.87 0 1.536-0.153 2.355-0.256h195.636c0.819 0 1.536 0.256 2.355 0.256s1.536-0.153 2.304-0.256h2.201v-0.307c23.092-2.304 40.858-22.579 40.858-46.899 0-24.576-18.022-44.646-40.858-46.95v-0.256h-3.02l-1.332-0.154-1.382 0.154H196.864l-1.331-0.154-1.383 0.154h-2.048v0.153c-23.398 1.843-41.984 22.17-41.984 47.053 0 25.037 18.432 45.158 41.984 47.053v0.153h1.23z" fill="#C71D23" p-id="7771"></path></svg>