<?xml version="1.0" standalone="no"?><!DOCTYPE svg PUBLIC "-//W3C//DTD SVG 1.1//EN" "http://www.w3.org/Graphics/SVG/1.1/DTD/svg11.dtd"><svg t="1546238216480" class="icon" style="" viewBox="0 0 1024 1024" version="1.1" xmlns="http://www.w3.org/2000/svg" p-id="1543" xmlns:xlink="http://www.w3.org/1999/xlink" width="26" height="26"><defs><style type="text/css"></style></defs><path d="M490.666667 733.866667l251.733333-251.733334c8.533333-8.533333 8.533333-21.333333 0-29.866666s-21.333333-8.533333-29.866667 0L512 652.8V106.666667c0-12.8-8.533333-21.333333-21.333333-21.333334s-21.333333 8.533333-21.333334 21.333334v546.133333l-196.266666-196.266667c-8.533333-8.533333-21.333333-8.533333-29.866667 0s-8.533333 21.333333 0 29.866667l247.466667 247.466667z" p-id="1544" fill="#C71D23"></path><path d="M908.8 371.2c-4.266667-12.8-17.066667-17.066667-29.866667-12.8-12.8 4.266667-17.066667 17.066667-12.8 29.866667 17.066667 46.933333 29.866667 98.133333 29.866667 145.066666 0 221.866667-179.2 405.333333-405.333333 405.333334S85.333333 755.2 85.333333 533.333333c0-51.2 8.533333-98.133333 29.866667-145.066666 4.266667-12.8 0-25.6-12.8-29.866667-12.8-4.266667-25.6 0-29.866667 12.8-21.333333 51.2-29.866667 106.666667-29.866666 162.133333C42.666667 780.8 243.2 981.333333 490.666667 981.333333S938.666667 780.8 938.666667 533.333333c0-55.466667-8.533333-110.933333-29.866667-162.133333z" p-id="1545" fill="#C71D23"></path></svg>