<?xml version="1.0" standalone="no"?><!DOCTYPE svg PUBLIC "-//W3C//DTD SVG 1.1//EN" "http://www.w3.org/Graphics/SVG/1.1/DTD/svg11.dtd"><svg t="1545808282129" class="icon" style="" viewBox="0 0 1024 1024" version="1.1" xmlns="http://www.w3.org/2000/svg" p-id="8540" xmlns:xlink="http://www.w3.org/1999/xlink" width="26" height="26"><defs><style type="text/css"></style></defs><path d="M512 64C264.576 64 64 264.576 64 512s200.576 448 448 448c247.36 0 448-200.576 448-448S759.36 64 512 64zM512 928c-229.76 0-416-186.24-416-416S282.24 96 512 96c229.696 0 416 186.24 416 416S741.696 928 512 928z" p-id="8541" fill="#C71D23"></path><path d="M521.536 330.496c-105.28 0-129.28 93.376-129.28 108.032l53.312 0c0 0 1.664-63.36 77.696-63.36 54.656 0 68.992 35.456 68.992 52.736S569.6 471.808 536.256 485.184c-33.344 13.312-50.688 49.92-50.688 85.952 0 30.656 0 30.08 0 30.08l54.72 0 0-32c0 0-4.672-32.384 29.952-47.04 34.752-14.656 68.992-40.704 68.992-94.016S600.256 330.496 521.536 330.496z" p-id="8542" fill="#C71D23"></path><path d="M485.952 624.192l54.016 0 0 51.008-54.016 0 0-51.008Z" p-id="8543" fill="#C71D23"></path></svg>