<?xml version="1.0" standalone="no"?><!DOCTYPE svg PUBLIC "-//W3C//DTD SVG 1.1//EN" "http://www.w3.org/Graphics/SVG/1.1/DTD/svg11.dtd"><svg t="1545808666053" class="icon" style="" viewBox="0 0 1024 1024" version="1.1" xmlns="http://www.w3.org/2000/svg" p-id="10441" xmlns:xlink="http://www.w3.org/1999/xlink" width="26" height="26"><defs><style type="text/css"></style></defs><path d="M511.621018 128C459.561747 128 409.903437 138.148791 362.645648 158.446113 315.387986 178.743435 274.574566 206.017839 240.20536 240.269586 205.836155 274.521333 178.542949 315.369807 158.32577 362.814749 138.10859 410.25969 128 459.86128 128 511.619514 128 553.22896 134.444241 593.570032 147.332696 632.642214 160.221151 671.714605 178.542949 706.981181 202.298142 738.442042 226.053334 769.902877 253.599238 797.558 284.93588 821.407334 316.272495 845.256694 351.526211 863.651149 390.697053 876.590685 429.867789 889.53023 470.175862 896 511.621018 896 563.680288 896 613.465139 885.851338 660.975318 865.554016 708.485757 845.256694 749.42551 817.98216 783.794848 783.730438 818.163923 749.47872 845.457181 708.630349 865.674358 661.185357 885.891539 613.74031 896 563.885152 896 511.619514 896 481.680803 892.588506 452.376534 885.765254 423.706714 878.942006 395.036634 869.2124 368.142845 856.576694 343.024829 843.940989 317.90681 828.904323 294.184469 811.466957 271.857285 794.02985 249.530361 774.191523 229.613655 751.952755 212.107166 729.713728 194.600677 705.958512 179.504666 680.687101 166.818612 655.41569 154.132818 628.501546 144.491688 599.944925 137.894961 571.388045 131.298493 541.946656 128 511.621018 128L511.621018 128 511.621018 128 511.621018 128ZM646.191482 829.018838C603.482707 847.286429 558.752342 856.420208 512.000128 856.420208 465.247917 856.420208 420.517293 847.286429 377.808544 829.018838 335.099744 810.751248 298.329758 786.2676 267.49854 755.567917 236.667347 724.868205 212.154033 688.206163 193.958546 645.581789 175.76311 602.957334 166.665366 558.303226 166.665366 511.619514 166.665366 464.935546 175.76311 420.281437 193.958546 377.65719 212.154033 335.032685 236.667347 298.370719 267.49854 267.671036 298.329758 236.971353 335.099744 212.487781 377.808544 194.220061 420.517293 175.952602 465.247917 166.818612 512.000128 166.818612 558.752342 166.818612 603.482707 175.952602 646.191482 194.220061 688.900515 212.487781 725.54401 236.971353 756.122477 267.671036 786.700944 298.370719 811.087846 335.032685 829.283437 377.65719 847.478768 420.281437 856.576694 464.935546 856.576694 511.619514 856.576694 558.303226 847.478768 602.957334 829.283437 645.581789 811.087846 688.206163 786.700944 724.868205 756.122477 755.567917 725.54401 786.2676 688.900515 810.751248 646.191482 829.018838L646.191482 829.018838 646.191482 829.018838 646.191482 829.018838ZM639.747344 492.590822 461.583594 392.880246C452.48567 387.29832 444.525341 386.537088 437.701834 390.596813 430.878582 394.656019 427.467088 402.013978 427.467088 412.669907L427.467088 610.568861C427.467088 621.225053 430.878582 628.582752 437.701834 632.642214 444.525341 636.701706 452.48567 635.940448 461.583594 630.358784L639.747344 530.648205C649.350406 525.573939 654.15207 519.231043 654.15207 511.619514 654.15207 504.007987 649.350406 497.665088 639.747344 492.590822L639.747344 492.590822 639.747344 492.590822 639.747344 492.590822Z" p-id="10442" fill="#C71D23"></path></svg>