<?xml version="1.0" standalone="no"?><!DOCTYPE svg PUBLIC "-//W3C//DTD SVG 1.1//EN" "http://www.w3.org/Graphics/SVG/1.1/DTD/svg11.dtd"><svg class="icon" width="200px" height="200.00px" viewBox="0 0 1024 1024" version="1.1" xmlns="http://www.w3.org/2000/svg"><path fill="#ffffff" d="M337.984 793.024c-16.064 0-28.992-12.608-28.992-28.096L308.992 455.808c0-15.552 12.992-28.096 28.992-28.096 16.064 0 28.992 12.608 28.992 28.096l0 309.056C366.976 780.416 353.984 793.024 337.984 793.024L337.984 793.024zM512 793.024c-16.064 0-28.992-12.608-28.992-28.096L483.008 455.808c0-15.552 12.992-28.096 28.992-28.096 16.064 0 28.992 12.608 28.992 28.096l0 309.056C540.992 780.416 528.064 793.024 512 793.024L512 793.024zM686.016 793.024c-16.064 0-28.992-12.608-28.992-28.096L657.024 455.808c0-15.552 12.992-28.096 28.992-28.096 16.064 0 28.992 12.608 28.992 28.096l0 309.056C715.072 780.416 702.08 793.024 686.016 793.024L686.016 793.024zM918.08 287.168l0 28.096-58.048 0 0 533.952c0 61.952-52.032 112.384-116.032 112.384L279.936 961.6c-64 0-116.032-50.432-116.032-112.384L163.904 315.264 105.92 315.264 105.92 287.168 76.864 287.168 76.864 259.072c0-61.952 52.032-112.384 116.032-112.384l120.128 0C326.016 98.304 371.072 62.4 424.96 62.4L599.04 62.4c53.888 0 98.944 35.904 111.936 84.288l120.128 0c64 0 116.032 50.432 116.032 112.384l0 28.096L918.08 287.168 918.08 287.168zM279.936 905.408l464.128 0c32 0 57.984-25.216 57.984-56.192L802.048 315.264 221.952 315.264l-4.032 533.952C217.92 880.192 248 905.408 279.936 905.408L279.936 905.408zM599.04 118.592 424.96 118.592c-21.376 0-39.872 11.392-49.92 28.096l273.92 0C638.912 129.984 620.416 118.592 599.04 118.592L599.04 118.592zM831.104 202.88 192.896 202.88c-32 0-57.984 25.216-57.984 56.192l69.12 0 145.024 0 325.888 0 145.024 0 69.12 0C889.088 228.096 863.04 202.88 831.104 202.88L831.104 202.88z" /></svg>